HIERARCHY
ROOT Hips
{
	OFFSET 0.000000 0.000000 0.000000
	CHANNELS 6 Xposition Yposition Zposition Yrotation Xrotation Zrotation 
	JOINT LeftHip
	{
		OFFSET 0.088514 -0.001098 0.000122
		CHANNELS 3 Yrotation Xrotation Zrotation
		JOINT LeftKnee
		{
			OFFSET 0.000000 -0.377351 -0.000006
			CHANNELS 3 Yrotation Xrotation Zrotation
			JOINT LeftAnkle
			{
				OFFSET 0.000000 -0.409320 0.000162
				CHANNELS 3 Yrotation Xrotation Zrotation
				JOINT LeftToe
				{
					OFFSET 0.000000 -0.080722 0.175165
					CHANNELS 3 Yrotation Xrotation Zrotation
					End Site
					{
						OFFSET 0.000000 0.000000 0.000000
					}
				}
			}
		}
	}
	JOINT RightHip
	{
		OFFSET -0.088514 -0.001076 0.000120
		CHANNELS 3 Yrotation Xrotation Zrotation
		JOINT RightKnee
		{
			OFFSET 0.000000 -0.377351 -0.000006
			CHANNELS 3 Yrotation Xrotation Zrotation
			JOINT RightAnkle
			{
				OFFSET 0.000000 -0.409320 0.000162
				CHANNELS 3 Yrotation Xrotation Zrotation
				JOINT RightToe
				{
					OFFSET 0.000000 -0.080722 0.175165
					CHANNELS 3 Yrotation Xrotation Zrotation
					End Site
					{
						OFFSET 0.000000 0.000000 0.000000
					}
				}
			}
		}
	}
	JOINT Chest
	{
		OFFSET 0.000000 0.109830 -0.012203
		CHANNELS 3 Yrotation Xrotation Zrotation
		JOINT Chest3
		{
			OFFSET 0.000000 0.219648 -0.010220
			CHANNELS 3 Yrotation Xrotation Zrotation
			JOINT Chest4
			{
				OFFSET 0.000000 0.104914 0.000445
				CHANNELS 3 Yrotation Xrotation Zrotation
				JOINT Neck
				{
					OFFSET 0.000000 0.146306 0.000000
					CHANNELS 3 Yrotation Xrotation Zrotation
					JOINT Head
					{
						OFFSET 0.000000 0.086907 -0.000103
						CHANNELS 3 Yrotation Xrotation Zrotation
						End Site
						{
							OFFSET 0.000000 0.000000 0.000000
						}
					}
				}
				JOINT LeftCollar
				{
					OFFSET 0.030074 0.081747 0.000000
					CHANNELS 3 Yrotation Xrotation Zrotation
					JOINT LeftShoulder
					{
						OFFSET 0.131781 0.000000 0.000000
						CHANNELS 3 Yrotation Xrotation Zrotation
						JOINT LeftElbow
						{
							OFFSET 0.252146 0.000000 0.000000
							CHANNELS 3 Yrotation Xrotation Zrotation
							JOINT LeftWrist
							{
								OFFSET 0.244457 0.000000 0.000079
								CHANNELS 3 Yrotation Xrotation Zrotation
								End Site
								{
									OFFSET 0.000000 0.000000 0.000000
								}
							}
						}
					}
				}
				JOINT RightCollar
				{
					OFFSET -0.030074 0.081747 0.000000
					CHANNELS 3 Yrotation Xrotation Zrotation
					JOINT RightShoulder
					{
						OFFSET -0.131781 0.000000 0.000000
						CHANNELS 3 Yrotation Xrotation Zrotation
						JOINT RightElbow
						{
							OFFSET -0.252146 0.000000 0.000000
							CHANNELS 3 Yrotation Xrotation Zrotation
							JOINT RightWrist
							{
								OFFSET -0.244457 0.000000 0.000079
								CHANNELS 3 Yrotation Xrotation Zrotation
								End Site
								{
									OFFSET 0.000000 0.000000 0.000000
								}
							}
						}
					}
				}
			}
		}
	}
}
MOTION
Frames: 16
Frame Time: 0.016667
0.000000 0.000000 0.000000 -26.165423 -7.270377 1.339274 9.124510 -2.157090 3.623320 -1.245822 12.402195 0.534631 18.223402 -4.764630 -5.330790 0.000000 -0.000000 0.000000 -10.719639 1.550116 -10.385162 -2.004351 13.992624 -0.176043 -19.060744 -8.656719 9.131917 0.000000 -0.000000 0.000000 1.929128 5.626508 -1.861483 1.892176 -0.831481 -1.657228 0.668227 7.700335 -0.572834 -3.042941 17.599091 1.551038 -6.133863 -3.201939 3.884342 0.476123 -2.740045 -8.545815 11.798344 -13.507489 -74.756001 -76.768684 -26.464594 -48.154316 -3.451880 7.929593 16.301755 1.846247 6.952570 5.083285 50.623088 -37.481795 48.756249 57.438199 -30.484472 -15.739339 -4.831719 -1.167686 -16.434604 
0.000000 0.000000 0.000000 -26.172729 -7.248350 1.345582 9.235833 -2.191673 3.617308 -1.297518 12.402719 0.523925 18.169695 -4.768821 -5.315996 0.000000 -0.000000 0.000000 -10.745756 1.505411 -10.396580 -1.992505 14.004217 -0.166559 -19.030324 -8.654758 9.124702 0.000000 -0.000000 0.000000 1.845948 5.581621 -1.862013 1.818212 -0.871253 -1.657349 0.640137 7.685706 -0.574811 -3.089891 17.578775 1.532457 -6.215220 -3.237998 3.867018 0.509522 -2.717839 -8.557537 11.761264 -13.515068 -74.744900 -76.876217 -26.418118 -48.075653 -3.465033 7.943176 16.242423 1.893254 6.832130 5.126585 49.762609 -37.512925 48.885866 57.997065 -30.618288 -16.172768 -4.856014 -1.203932 -16.463346 
0.000000 0.000000 0.000000 -26.162059 -7.231673 1.350606 9.353418 -2.223777 3.613722 -1.362745 12.401047 0.510504 18.104592 -4.771119 -5.298599 0.000000 -0.000000 0.000000 -10.773803 1.465624 -10.412495 -2.000385 14.025260 -0.151322 -18.995478 -8.658803 9.116339 0.000000 -0.000000 0.000000 1.750134 5.537931 -1.863157 1.733074 -0.909941 -1.657957 0.607815 7.671523 -0.577304 -3.140194 17.559816 1.507142 -6.300435 -3.271786 3.838344 0.534732 -2.697132 -8.576496 11.748278 -13.516054 -74.721667 -77.011661 -26.377155 -47.981425 -3.485526 7.960497 16.181222 1.905099 6.692099 5.156242 48.875256 -37.556610 49.026896 58.606575 -30.893376 -16.702658 -4.898343 -1.260060 -16.517193 
0.000000 0.000000 0.000000 -26.144398 -7.220242 1.358201 9.406692 -2.238989 3.603386 -1.404367 12.389207 0.504206 18.074563 -4.768817 -5.286766 0.000000 -0.000000 0.000000 -10.811359 1.440222 -10.429401 -2.015192 14.034341 -0.142203 -18.953789 -8.663046 9.106481 0.000000 -0.000000 0.000000 1.642388 5.493573 -1.867425 1.637623 -0.949196 -1.661284 0.571518 7.657155 -0.581130 -3.189929 17.541784 1.478487 -6.383440 -3.304111 3.803287 0.567618 -2.675803 -8.603670 11.761701 -13.516893 -74.681013 -77.123625 -26.353272 -47.908172 -3.503064 7.974172 16.133137 1.883099 6.555319 5.165411 48.018384 -37.627240 49.177738 59.145456 -31.210891 -17.269920 -4.970444 -1.317950 -16.604924 
0.000000 0.000000 0.000000 -26.118663 -7.217917 1.370734 9.360675 -2.225499 3.580784 -1.403850 12.361142 0.510909 18.096098 -4.760026 -5.283874 0.000000 -0.000000 0.000000 -10.869406 1.438718 -10.449363 -2.036222 14.020733 -0.144373 -18.897776 -8.665558 9.094896 0.000000 -0.000000 0.000000 1.516907 5.448401 -1.876661 1.526876 -0.989139 -1.668938 0.529316 7.642572 -0.587040 -3.232226 17.526568 1.446597 -6.451491 -3.331918 3.759612 0.613222 -2.649808 -8.643350 11.814647 -13.522226 -74.610100 -77.194144 -26.358817 -47.875637 -3.515221 7.981405 16.103303 1.816018 6.433950 5.144088 47.237129 -37.737029 49.338258 59.591215 -31.573370 -17.887055 -5.093336 -1.375247 -16.763350 
0.000000 0.000000 0.000000 -26.085940 -7.220846 1.385834 9.250317 -2.195220 3.551484 -1.379735 12.322915 0.524773 18.152707 -4.746651 -5.286520 0.000000 -0.000000 0.000000 -10.936980 1.451571 -10.470344 -2.064170 13.995144 -0.152609 -18.834920 -8.668267 9.081822 0.000000 -0.000000 0.000000 1.379513 5.402506 -1.889036 1.405833 -1.029701 -1.679326 0.483144 7.627784 -0.594292 -3.273936 17.512211 1.411363 -6.517290 -3.358393 3.709537 0.666538 -2.623305 -8.691231 11.893949 -13.527328 -74.521706 -77.241557 -26.381937 -47.863818 -3.524343 7.985017 16.086582 1.715349 6.315413 5.102436 46.483480 -37.872979 49.512345 59.965126 -31.974592 -18.541379 -5.244667 -1.430741 -16.956627 
0.000000 0.000000 0.000000 -26.060460 -7.217343 1.400254 9.109953 -2.169306 3.523065 -1.350489 12.284731 0.538081 18.241395 -4.731689 -5.292699 0.000000 -0.000000 0.000000 -10.988728 1.459697 -10.482635 -2.088344 13.968310 -0.163193 -18.785249 -8.671155 9.067623 0.000000 -0.000000 0.000000 1.248351 5.354400 -1.901495 1.290333 -1.072236 -1.689833 0.439054 7.612235 -0.601444 -3.331724 17.492560 1.375883 -6.612945 -3.393671 3.664748 0.728357 -2.606381 -8.735302 11.962516 -13.524658 -74.448984 -77.268925 -26.398243 -47.849668 -3.527236 7.986065 16.082531 1.616417 6.185635 5.063789 45.675250 -38.011875 49.704244 60.210636 -32.302787 -19.129606 -5.372195 -1.470756 -17.082834 
0.000000 0.000000 0.000000 -26.047148 -7.200725 1.414010 8.932522 -2.156338 3.495924 -1.320520 12.248372 0.547858 18.378174 -4.714143 -5.302151 0.000000 -0.000000 0.000000 -11.008513 1.455513 -10.479336 -2.104440 13.941512 -0.178569 -18.764711 -8.673063 9.052567 0.000000 -0.000000 0.000000 1.130813 5.302709 -1.913796 1.186924 -1.117976 -1.700284 0.399522 7.595441 -0.608238 -3.414838 17.465394 1.340680 -6.755795 -3.441322 3.629460 0.804026 -2.608736 -8.770381 11.999107 -13.510768 -74.402027 -77.269489 -26.397158 -47.822366 -3.519165 7.984321 16.095589 1.525977 6.035271 5.035613 44.764126 -38.164661 49.927942 60.281168 -32.486518 -19.613088 -5.449886 -1.490529 -17.088991 
0.000000 0.000000 0.000000 -26.041073 -7.177668 1.427090 8.725088 -2.147815 3.469759 -1.285404 12.212065 0.557148 18.547023 -4.694957 -5.315070 0.000000 -0.000000 0.000000 -11.012456 1.446637 -10.467341 -2.116756 13.913470 -0.196323 -18.757355 -8.675154 9.036383 0.000000 -0.000000 0.000000 1.019507 5.248825 -1.926114 1.089054 -1.165670 -1.710794 0.362073 7.577895 -0.614910 -3.514005 17.432894 1.305269 -6.928473 -3.497921 3.599555 0.888204 -2.620569 -8.801477 12.025018 -13.489209 -74.370820 -77.249906 -26.389406 -47.792829 -3.504875 7.979977 16.121314 1.437246 5.873803 5.010628 43.797766 -38.318168 50.169594 60.222881 -32.594472 -20.025538 -5.505140 -1.498696 -17.026436 
0.000000 0.000000 0.000000 -26.041684 -7.156528 1.436208 8.543211 -2.139100 3.451140 -1.250355 12.180680 0.567189 18.696911 -4.680066 -5.330206 0.000000 -0.000000 0.000000 -11.023580 1.436814 -10.457587 -2.127513 13.891081 -0.205473 -18.735364 -8.680885 9.018629 0.000000 -0.000000 0.000000 0.910381 5.195452 -1.936013 0.992891 -1.212915 -1.719183 0.325330 7.560519 -0.620752 -3.618103 17.395542 1.271271 -7.111035 -3.563060 3.574296 0.965621 -2.622647 -8.831922 12.067011 -13.463008 -74.358361 -77.233275 -26.382419 -47.770683 -3.495401 7.974731 16.145938 1.365104 5.715723 4.989942 42.841678 -38.414458 50.387353 60.116696 -32.727867 -20.370328 -5.567060 -1.503044 -16.948933 
0.000000 0.000000 0.000000 -26.048442 -7.135949 1.440907 8.402642 -2.131933 3.439922 -1.215403 12.155356 0.578166 18.811939 -4.671977 -5.345742 0.000000 -0.000000 0.000000 -11.057617 1.421263 -10.458294 -2.136012 13.877360 -0.197874 -18.681869 -8.691505 8.999074 0.000000 -0.000000 0.000000 0.802315 5.139554 -1.942728 0.897362 -1.262412 -1.724774 0.288899 7.542302 -0.625530 -3.727695 17.353144 1.238207 -7.304377 -3.637055 3.553031 1.029972 -2.603795 -8.863916 12.141740 -13.431674 -74.372217 -77.228703 -26.376587 -47.761680 -3.495873 7.969003 16.166357 1.322891 5.560503 4.976145 41.900549 -38.417863 50.560389 59.999903 -32.953430 -20.657194 -5.657760 -1.507024 -16.868352 
0.000000 0.000000 0.000000 -26.061890 -7.117284 1.441639 8.287645 -2.124430 3.436224 -1.180522 12.134952 0.589819 18.908017 -4.668206 -5.363562 0.000000 -0.000000 0.000000 -11.098839 1.404766 -10.461215 -2.142966 13.869315 -0.181669 -18.613733 -8.705739 8.977934 0.000000 -0.000000 0.000000 0.696411 5.084210 -1.947018 0.803526 -1.311425 -1.728234 0.253172 7.524265 -0.629475 -3.842181 17.305885 1.206633 -7.507566 -3.719615 3.536582 1.087535 -2.575216 -8.895420 12.232574 -13.395853 -74.404827 -77.227093 -26.371481 -47.760061 -3.501185 7.962422 16.185667 1.297195 5.408782 4.966532 40.975099 -38.366176 50.703147 59.831676 -33.204717 -20.873774 -5.754966 -1.506073 -16.772869 
0.000000 0.000000 0.000000 -26.083098 -7.112957 1.436486 8.206568 -2.106389 3.446865 -1.150842 12.120917 0.602656 18.981836 -4.667242 -5.388028 0.000000 -0.000000 0.000000 -11.123075 1.405426 -10.452635 -2.152718 13.864797 -0.170297 -18.553742 -8.723264 8.955438 0.000000 -0.000000 0.000000 0.591939 5.041321 -1.948833 0.710751 -1.349372 -1.729489 0.217952 7.510377 -0.632591 -3.948702 17.254890 1.179773 -7.697934 -3.809237 3.526507 1.141900 -2.551265 -8.923455 12.316336 -13.360236 -74.436487 -77.224293 -26.373238 -47.758167 -3.506997 7.955527 16.199407 1.262763 5.276737 4.954092 40.124685 -38.313857 50.827739 59.576761 -33.384420 -20.991407 -5.820786 -1.495917 -16.680755 
0.000000 0.000000 0.000000 -26.105741 -7.130990 1.421212 8.168762 -2.074466 3.478953 -1.130985 12.117664 0.617339 19.021541 -4.669255 -5.422521 0.000000 -0.000000 0.000000 -11.122649 1.436779 -10.423450 -2.171435 13.861604 -0.170290 -18.512018 -8.744935 8.931081 0.000000 -0.000000 0.000000 0.485604 5.019078 -1.947508 0.616056 -1.368969 -1.727908 0.182155 7.503380 -0.634735 -4.043998 17.196431 1.159779 -7.870438 -3.912816 3.525955 1.194820 -2.537760 -8.946205 12.382160 -13.326148 -74.461683 -77.220453 -26.390972 -47.750947 -3.512445 7.947159 16.204414 1.197587 5.172287 4.931099 39.375316 -38.289424 50.936716 59.196978 -33.436446 -20.991091 -5.829938 -1.475890 -16.594620 
0.000000 0.000000 0.000000 -26.136135 -7.163372 1.400074 8.164913 -2.031965 3.525333 -1.116328 12.120773 0.633179 19.038993 -4.674101 -5.463679 0.000000 -0.000000 0.000000 -11.105214 1.485293 -10.382790 -2.192953 13.861909 -0.175122 -18.478436 -8.769912 8.905368 0.000000 -0.000000 0.000000 0.380675 5.009353 -1.943896 0.522410 -1.377450 -1.724279 0.146854 7.500548 -0.636094 -4.131317 17.134362 1.144694 -8.030168 -4.023158 3.532144 1.244525 -2.528856 -8.965481 12.440909 -13.292245 -74.486004 -77.215514 -26.415589 -47.743447 -3.518376 7.938469 16.203847 1.123636 5.087387 4.905039 38.698955 -38.266562 51.030918 58.736804 -33.412942 -20.894419 -5.806680 -1.449254 -16.511672 
0.000000 0.000000 0.000000 -26.194318 -7.198474 1.383921 8.175378 -1.978625 3.571362 -1.098128 12.118455 0.648663 19.066452 -4.679774 -5.505736 0.000000 -0.000000 0.000000 -11.069606 1.528480 -10.344333 -2.203124 13.870112 -0.178650 -18.445410 -8.795349 8.880057 0.000000 -0.000000 0.000000 0.286263 4.999537 -1.940207 0.438107 -1.386028 -1.720626 0.115083 7.497641 -0.637175 -4.207615 17.081196 1.131450 -8.169694 -4.117579 3.537458 1.289332 -2.521410 -8.983673 12.502022 -13.259145 -74.506393 -77.204927 -26.425934 -47.743142 -3.522991 7.933434 16.202739 1.081600 5.014368 4.891634 38.072473 -38.217396 51.121621 58.286305 -33.380539 -20.734761 -5.787489 -1.417891 -16.441834 
